<svg id="ic-frontend" xmlns="http://www.w3.org/2000/svg" width="40" height="40" viewBox="0 0 40 40">
  <path id="Path_59" data-name="Path 59" d="M0,0H40V40H0Z" fill="none"/>
  <path id="Path_60" data-name="Path 60" d="M3.8,3H36.2A1.846,1.846,0,0,1,38,4.889V35.111A1.846,1.846,0,0,1,36.2,37H3.8A1.846,1.846,0,0,1,2,35.111V4.889A1.846,1.846,0,0,1,3.8,3ZM5.6,6.778V33.222H34.4V6.778ZM34.4,20l-6.365,6.679L25.49,24.006,29.31,20l-3.82-4.006,2.545-2.673ZM10.69,20l3.82,4.006-2.545,2.673L5.6,20l6.365-6.679L14.51,16Zm7.949,9.444h-3.83l6.552-18.889h3.83L18.639,29.444Z" transform="translate(0 2)" fill="#c92fc9"/>
</svg>
