<svg id="ic-brush" xmlns="http://www.w3.org/2000/svg" width="40" height="40" viewBox="0 0 40 40">
  <path id="Path_55" data-name="Path 55" d="M0,0H40V40H0Z" fill="none"/>
  <path id="Path_56" data-name="Path 56" d="M6.684,6.684v5.526H32.474V6.684ZM4.842,3H34.316a1.842,1.842,0,0,1,1.842,1.842v9.211a1.842,1.842,0,0,1-1.842,1.842H4.842A1.842,1.842,0,0,1,3,14.053V4.842A1.842,1.842,0,0,1,4.842,3ZM8.526,19.579H19.579a1.842,1.842,0,0,1,1.842,1.842v5.526h1.842V38H15.895V26.947h1.842V23.263H6.684a1.842,1.842,0,0,1-1.842-1.842V17.737H8.526Zm21.612,3.191,3.257-3.257,3.257,3.257a4.605,4.605,0,1,1-6.514,0Z" transform="translate(0 1)" fill="#dbc534"/>
</svg>
