<svg xmlns="http://www.w3.org/2000/svg" width="35.04" height="35.04" viewBox="0 0 35.04 35.04">
  <g id="ic-ux" transform="translate(-2.48 -2.48)">
    <path id="Path_57" data-name="Path 57" d="M0,0H35.04V35.04H0Z" transform="translate(2.48 2.48)" fill="none"/>
    <path id="Path_58" data-name="Path 58" d="M14.454,28.7h7.1c.231-2.006,1.3-3.661,3.045-5.468.2-.2,1.456-1.447,1.6-1.624A9.679,9.679,0,0,0,25.15,8.015a10.881,10.881,0,0,0-14.294,0A9.679,9.679,0,0,0,9.8,21.6c.151.179,1.412,1.423,1.607,1.625C13.151,25.037,14.223,26.692,14.454,28.7ZM21.5,32.035h-7V33.7h7ZM7.07,23.692a12.906,12.906,0,0,1,1.4-18.123,14.508,14.508,0,0,1,19.061,0,12.906,12.906,0,0,1,1.4,18.123C27.846,24.983,25,27.029,25,29.532V33.7a3.422,3.422,0,0,1-3.5,3.337h-7A3.422,3.422,0,0,1,11,33.7V29.532c0-2.5-2.844-4.549-3.931-5.84Zm12.682-8.337h4.376L16.252,25.367V18.693H11.876L19.752,8.674v6.683Z" transform="translate(1.998 0.479)" fill="#5449eb"/>
  </g>
</svg>
