<svg xmlns="http://www.w3.org/2000/svg" width="26" height="18.493" viewBox="0 0 26 18.493">
  <path id="svg-behance" d="M8.682,12.656A2.463,2.463,0,0,0,11.045,10.1,2.463,2.463,0,0,0,8.682,7.552H3.364v5.1Zm1.182,2.552h-6.5v5.1h6.5a2.463,2.463,0,0,0,2.364-2.552A2.463,2.463,0,0,0,9.864,15.208ZM12.3,13.386a5.291,5.291,0,0,1,2.119,5.74,4.8,4.8,0,0,1-4.557,3.738H1V5H8.682a4.717,4.717,0,0,1,4.284,2.947A5.431,5.431,0,0,1,12.3,13.386Zm5.835-7.11h6.5V8.19h-6.5ZM27,17.122H18.136v.319a3.467,3.467,0,0,0,2.49,3.413,3.175,3.175,0,0,0,3.655-1.818H26.8a5.637,5.637,0,0,1-6.161,4.4,5.928,5.928,0,0,1-4.871-6V15.527a5.85,5.85,0,0,1,5.614-6.061A5.85,5.85,0,0,1,27,15.527v1.595ZM24.513,14.57a3.192,3.192,0,0,0-6.254,0Z" transform="translate(-1 -5)" fill="#687388"/>
</svg>
