<svg id="ic_sports" xmlns="http://www.w3.org/2000/svg" width="40" height="40" viewBox="0 0 40 40">
  <path id="Path_68" data-name="Path 68" d="M0,0H40V40H0Z" fill="none"/>
  <path id="Path_69" data-name="Path 69" d="M18.915,2A16.915,16.915,0,1,1,2,18.915,16.914,16.914,0,0,1,18.915,2Zm.619,19.225L13.666,31.391a13.621,13.621,0,0,0,7.542.863,16.808,16.808,0,0,1,1.326-9.293l-3-1.735Zm5.951,3.435a13.457,13.457,0,0,0-.993,6.587,13.569,13.569,0,0,0,5.2-4.154L25.484,24.66ZM13.6,17.8a16.83,16.83,0,0,1-7.383,5.8,13.549,13.549,0,0,0,4.518,6.1L16.6,19.534l-3-1.732Zm18.78-.22-.436.2a13.442,13.442,0,0,0-4.77,3.946l4.215,2.434a13.489,13.489,0,0,0,.991-6.585Zm-27,1.333c0,.45.022.9.064,1.335A13.447,13.447,0,0,0,10.654,16.1L6.438,13.666a13.489,13.489,0,0,0-1.055,5.249ZM27.093,8.133,21.225,18.3l3,1.734a16.83,16.83,0,0,1,7.385-5.8,13.557,13.557,0,0,0-4.092-5.754l-.428-.34Zm-8.178-2.75a13.677,13.677,0,0,0-2.3.195,16.793,16.793,0,0,1-1.326,9.293l3,1.734L24.163,6.438a13.489,13.489,0,0,0-5.249-1.055Zm-5.577,1.2-.323.149a13.587,13.587,0,0,0-4.882,4l4.212,2.432A13.457,13.457,0,0,0,13.338,6.584Z" transform="translate(1.085 1.085)" fill="#dbc534"/>
</svg>
