<svg xmlns="http://www.w3.org/2000/svg" width="88" height="136" viewBox="0 0 88 136">
  <g id="svg-dots" transform="translate(-1646.924 -519.4)">
    <ellipse id="Ellipse_12" data-name="Ellipse 12" cx="5" cy="5.5" rx="5" ry="5.5" transform="translate(1646.924 519.4)" fill="#eaeaf3"/>
    <ellipse id="Ellipse_13" data-name="Ellipse 13" cx="5" cy="5.5" rx="5" ry="5.5" transform="translate(1666.924 519.4)" fill="#eaeaf3"/>
    <circle id="Ellipse_14" data-name="Ellipse 14" cx="5.5" cy="5.5" r="5.5" transform="translate(1685.924 519.4)" fill="#eaeaf3"/>
    <circle id="Ellipse_15" data-name="Ellipse 15" cx="5.5" cy="5.5" r="5.5" transform="translate(1704.924 519.4)" fill="#eaeaf3"/>
    <circle id="Ellipse_16" data-name="Ellipse 16" cx="5.5" cy="5.5" r="5.5" transform="translate(1723.924 519.4)" fill="#eaeaf3"/>
    <ellipse id="Ellipse_17" data-name="Ellipse 17" cx="5" cy="5.5" rx="5" ry="5.5" transform="translate(1646.924 545.4)" fill="#eaeaf3"/>
    <ellipse id="Ellipse_18" data-name="Ellipse 18" cx="5" cy="5.5" rx="5" ry="5.5" transform="translate(1666.924 545.4)" fill="#eaeaf3"/>
    <circle id="Ellipse_19" data-name="Ellipse 19" cx="5.5" cy="5.5" r="5.5" transform="translate(1685.924 545.4)" fill="#eaeaf3"/>
    <circle id="Ellipse_20" data-name="Ellipse 20" cx="5.5" cy="5.5" r="5.5" transform="translate(1704.924 545.4)" fill="#eaeaf3"/>
    <circle id="Ellipse_21" data-name="Ellipse 21" cx="5.5" cy="5.5" r="5.5" transform="translate(1723.924 545.4)" fill="#eaeaf3"/>
    <ellipse id="Ellipse_22" data-name="Ellipse 22" cx="5" cy="4.5" rx="5" ry="4.5" transform="translate(1646.924 571.4)" fill="#eaeaf3"/>
    <ellipse id="Ellipse_23" data-name="Ellipse 23" cx="5" cy="4.5" rx="5" ry="4.5" transform="translate(1666.924 571.4)" fill="#eaeaf3"/>
    <ellipse id="Ellipse_24" data-name="Ellipse 24" cx="5.5" cy="4.5" rx="5.5" ry="4.5" transform="translate(1685.924 571.4)" fill="#eaeaf3"/>
    <ellipse id="Ellipse_25" data-name="Ellipse 25" cx="5.5" cy="4.5" rx="5.5" ry="4.5" transform="translate(1704.924 571.4)" fill="#eaeaf3"/>
    <ellipse id="Ellipse_26" data-name="Ellipse 26" cx="5.5" cy="4.5" rx="5.5" ry="4.5" transform="translate(1723.924 571.4)" fill="#eaeaf3"/>
    <ellipse id="Ellipse_27" data-name="Ellipse 27" cx="5" cy="5.5" rx="5" ry="5.5" transform="translate(1646.924 595.4)" fill="#eaeaf3"/>
    <ellipse id="Ellipse_28" data-name="Ellipse 28" cx="5" cy="5.5" rx="5" ry="5.5" transform="translate(1666.924 595.4)" fill="#eaeaf3"/>
    <circle id="Ellipse_29" data-name="Ellipse 29" cx="5.5" cy="5.5" r="5.5" transform="translate(1685.924 595.4)" fill="#eaeaf3"/>
    <circle id="Ellipse_30" data-name="Ellipse 30" cx="5.5" cy="5.5" r="5.5" transform="translate(1704.924 595.4)" fill="#eaeaf3"/>
    <circle id="Ellipse_31" data-name="Ellipse 31" cx="5.5" cy="5.5" r="5.5" transform="translate(1723.924 595.4)" fill="#eaeaf3"/>
    <ellipse id="Ellipse_32" data-name="Ellipse 32" cx="5" cy="5.5" rx="5" ry="5.5" transform="translate(1646.924 620.4)" fill="#eaeaf3"/>
    <ellipse id="Ellipse_33" data-name="Ellipse 33" cx="5" cy="5.5" rx="5" ry="5.5" transform="translate(1666.924 620.4)" fill="#eaeaf3"/>
    <circle id="Ellipse_34" data-name="Ellipse 34" cx="5.5" cy="5.5" r="5.5" transform="translate(1685.924 620.4)" fill="#eaeaf3"/>
    <circle id="Ellipse_35" data-name="Ellipse 35" cx="5.5" cy="5.5" r="5.5" transform="translate(1704.924 620.4)" fill="#eaeaf3"/>
    <circle id="Ellipse_36" data-name="Ellipse 36" cx="5.5" cy="5.5" r="5.5" transform="translate(1723.924 620.4)" fill="#eaeaf3"/>
    <ellipse id="Ellipse_37" data-name="Ellipse 37" cx="5" cy="5.5" rx="5" ry="5.5" transform="translate(1646.924 644.4)" fill="#eaeaf3"/>
    <ellipse id="Ellipse_38" data-name="Ellipse 38" cx="5" cy="5.5" rx="5" ry="5.5" transform="translate(1666.924 644.4)" fill="#eaeaf3"/>
    <circle id="Ellipse_39" data-name="Ellipse 39" cx="5.5" cy="5.5" r="5.5" transform="translate(1685.924 644.4)" fill="#eaeaf3"/>
    <circle id="Ellipse_40" data-name="Ellipse 40" cx="5.5" cy="5.5" r="5.5" transform="translate(1704.924 644.4)" fill="#eaeaf3"/>
    <circle id="Ellipse_41" data-name="Ellipse 41" cx="5.5" cy="5.5" r="5.5" transform="translate(1723.924 644.4)" fill="#eaeaf3"/>
  </g>
</svg>
