<svg id="svg-relax" xmlns="http://www.w3.org/2000/svg" width="40" height="40" viewBox="0 0 40 40">
  <path id="Path_74" data-name="Path 74" d="M0,0H40V40H0Z" fill="none"/>
  <path id="Path_75" data-name="Path 75" d="M30.257,29v9H26.838V29A19.88,19.88,0,0,1,37.86,10.971l1.415,3.276A16.272,16.272,0,0,0,30.257,29Zm-17.1,0v9H9.743V29A16.273,16.273,0,0,0,.724,14.248l1.417-3.277A19.888,19.888,0,0,1,13.162,29ZM20,20a8.783,8.783,0,0,1-8.548-9A8.783,8.783,0,0,1,20,2a8.783,8.783,0,0,1,8.548,9A8.783,8.783,0,0,1,20,20Zm0-3.6A5.27,5.27,0,0,0,25.129,11,5.27,5.27,0,0,0,20,5.6,5.27,5.27,0,0,0,14.872,11,5.27,5.27,0,0,0,20,16.4Z" transform="translate(0)" fill="#959fb7"/>
</svg>
