<svg xmlns="http://www.w3.org/2000/svg" width="24" height="24" viewBox="0 0 24 24">
  <path id="svg-instagram" d="M14,10.4A3.6,3.6,0,1,0,17.6,14,3.6,3.6,0,0,0,14,10.4ZM14,8a6,6,0,1,1-6,6A6,6,0,0,1,14,8Zm7.8-.3a1.5,1.5,0,1,1-1.5-1.5A1.5,1.5,0,0,1,21.8,7.7ZM14,4.4c-2.969,0-3.454.008-4.835.07a6.519,6.519,0,0,0-2.158.4,3.464,3.464,0,0,0-1.3.844,3.468,3.468,0,0,0-.845,1.3,6.51,6.51,0,0,0-.4,2.158C4.407,10.49,4.4,10.953,4.4,14c0,2.969.008,3.454.07,4.835a6.545,6.545,0,0,0,.4,2.156,3.731,3.731,0,0,0,2.138,2.14,6.533,6.533,0,0,0,2.16.4c1.325.062,1.788.07,4.835.07,2.969,0,3.454-.008,4.835-.07a6.558,6.558,0,0,0,2.156-.4,3.505,3.505,0,0,0,1.3-.842,3.47,3.47,0,0,0,.845-1.3,6.56,6.56,0,0,0,.4-2.16c.062-1.325.07-1.788.07-4.835,0-2.969-.008-3.454-.07-4.835a6.532,6.532,0,0,0-.4-2.158,3.493,3.493,0,0,0-.844-1.3,3.461,3.461,0,0,0-1.3-.845,6.516,6.516,0,0,0-2.158-.4C17.51,4.407,17.047,4.4,14,4.4ZM14,2c3.26,0,3.667.012,4.946.072a8.84,8.84,0,0,1,2.914.558,5.851,5.851,0,0,1,2.126,1.384A5.89,5.89,0,0,1,25.37,6.14a8.865,8.865,0,0,1,.558,2.914C25.984,10.333,26,10.74,26,14s-.012,3.667-.072,4.946a8.871,8.871,0,0,1-.558,2.914,6.127,6.127,0,0,1-3.51,3.51,8.865,8.865,0,0,1-2.914.558C17.667,25.984,17.26,26,14,26s-3.667-.012-4.946-.072A8.871,8.871,0,0,1,6.14,25.37a6.127,6.127,0,0,1-3.51-3.51,8.834,8.834,0,0,1-.558-2.914C2.016,17.667,2,17.26,2,14s.012-3.667.072-4.946A8.834,8.834,0,0,1,2.63,6.14,5.856,5.856,0,0,1,4.014,4.014,5.876,5.876,0,0,1,6.14,2.63a8.834,8.834,0,0,1,2.914-.558C10.333,2.016,10.74,2,14,2Z" transform="translate(-2 -2)" fill="#687388"/>
</svg>
