<svg id="svg-scroll-down" xmlns="http://www.w3.org/2000/svg" xmlns:xlink="http://www.w3.org/1999/xlink" width="28" height="30" viewBox="0 0 28 30">
  <defs>
    <linearGradient id="linear-gradient" x1="0.5" x2="0.5" y2="1" gradientUnits="objectBoundingBox">
      <stop offset="0" stop-color="#9282ff"/>
      <stop offset="1" stop-color="#533aff"/>
    </linearGradient>
  </defs>
  <path id="Path_92" data-name="Path 92" d="M0,0H28V28H0Z" fill="none"/>
  <path id="Path_93" data-name="Path 93" d="M12.926,4.4a7.969,7.969,0,0,0-3.91.678,4.234,4.234,0,0,0-1.81,1.738c-.5.888-.706,5.855-.706,7.752V21.43a7.133,7.133,0,0,0,.706,3.754,4.232,4.232,0,0,0,1.81,1.738,7.966,7.966,0,0,0,3.91.678h2.148a7.969,7.969,0,0,0,3.91-.678,4.234,4.234,0,0,0,1.81-1.738A7.13,7.13,0,0,0,21.5,21.43V14.568c0-1.9-.211-6.864-.706-7.754a4.234,4.234,0,0,0-1.81-1.738A7.98,7.98,0,0,0,15.075,4.4h-2.15Zm0-2.4h2.148a10.314,10.314,0,0,1,5.09.961A6.685,6.685,0,0,1,23,5.683c.654,1.174,1,6.47,1,8.886v6.862a9.245,9.245,0,0,1-1,4.886,6.685,6.685,0,0,1-2.835,2.722,10.314,10.314,0,0,1-5.09.961H12.925a10.314,10.314,0,0,1-5.09-.961A6.685,6.685,0,0,1,5,26.317a9.259,9.259,0,0,1-1-4.886V14.568c0-2.417.348-7.713,1-8.886a6.686,6.686,0,0,1,2.836-2.72A10.3,10.3,0,0,1,12.926,2ZM12.75,6.8h2.5v8h-2.5Z" transform="translate(0 0)" fill="url(#linear-gradient)"/>
</svg>
