<svg id="svg-games" xmlns="http://www.w3.org/2000/svg" width="40" height="40" viewBox="0 0 40 40">
  <path id="Path_72" data-name="Path 72" d="M0,0H40V40H0Z" fill="none"/>
  <path id="Path_73" data-name="Path 73" d="M28.636,4C34.36,4,39,9.373,39,16v8c0,6.627-4.64,12-10.364,12H11.364C5.64,36,1,30.627,1,24V16C1,9.373,5.64,4,11.364,4Zm0,4H11.364c-3.682,0-6.716,3.343-6.9,7.6l-.009.4v8c0,4.263,2.887,7.777,6.564,7.99l.345.01H28.636c3.682,0,6.716-3.343,6.9-7.6l.009-.4V16c0-4.263-2.887-7.777-6.564-7.99ZM16.545,14v4H20v4H16.544l0,4H13.091l0-4H9.636V18h3.455V14Zm13.818,8v4H26.909V22Zm-3.455-8v4H23.455V14Z" fill="#c92fc9"/>
</svg>
