<svg xmlns="http://www.w3.org/2000/svg" width="22" height="22" viewBox="0 0 22 22">
  <path id="svg-linkedin" d="M4.222,3H23.778A1.222,1.222,0,0,1,25,4.222V23.778A1.222,1.222,0,0,1,23.778,25H4.222A1.222,1.222,0,0,1,3,23.778V4.222A1.222,1.222,0,0,1,4.222,3ZM5.444,5.444V22.556H22.556V5.444ZM8.5,10.333A1.833,1.833,0,1,1,10.333,8.5,1.833,1.833,0,0,1,8.5,10.333ZM7.278,11.556H9.722v9.167H7.278ZM14,12.081a3.572,3.572,0,0,1,2.444-1.137,4.333,4.333,0,0,1,4.278,4.583v5.194H18.278V15.528a2.139,2.139,0,0,0-4.278,0v5.194H11.556V11.556H14Z" transform="translate(-3 -3)" fill="#687388"/>
</svg>
