<svg xmlns="http://www.w3.org/2000/svg" width="24" height="24" viewBox="0 0 24 24">
  <path id="svg-dribbble" d="M23.587,13.486A9.552,9.552,0,0,0,21.7,8.265a11.7,11.7,0,0,1-1.1,1.044,15.788,15.788,0,0,1-3.976,2.412c.2.42.384.827.546,1.211v0q.069.161.132.324a23.033,23.033,0,0,1,5.588.121c.247.034.48.07.7.106ZM12.325,4.546a55.4,55.4,0,0,1,3.23,5.124,13.327,13.327,0,0,0,3.658-2.12,9.456,9.456,0,0,0,.955-.906A9.562,9.562,0,0,0,14,4.4a9.66,9.66,0,0,0-1.675.145ZM4.7,11.6q1.226-.031,2.448-.148a37.837,37.837,0,0,0,5.834-.986q-1.5-2.61-3.24-5.072A9.622,9.622,0,0,0,4.7,11.6ZM6.54,20.042a17.128,17.128,0,0,1,1.89-2.279,15.148,15.148,0,0,1,6.187-3.948l.074-.022c-.2-.437-.384-.827-.571-1.194a36.1,36.1,0,0,1-6.836,1.25c-1.128.1-2.14.146-2.884.154a9.56,9.56,0,0,0,2.141,6.038ZM17.606,22.9a43.136,43.136,0,0,0-1.958-6.851,15.215,15.215,0,0,0-5.8,3.67A11.724,11.724,0,0,0,8.271,21.7a9.615,9.615,0,0,0,9.335,1.2Zm2.248-1.29a9.6,9.6,0,0,0,3.584-5.844,14.648,14.648,0,0,0-1.494-.283,14.428,14.428,0,0,0-3.816-.04,47.241,47.241,0,0,1,1.726,6.168ZM14,26A12,12,0,1,1,26,14,12,12,0,0,1,14,26Z" transform="translate(-2 -2)" fill="#687388"/>
</svg>
