<svg id="svg_discomfort" xmlns="http://www.w3.org/2000/svg" width="40" height="40" viewBox="0 0 40 40">
  <path id="Path_70" data-name="Path 70" d="M0,0H40V40H0Z" fill="none"/>
  <path id="Path_71" data-name="Path 71" d="M21.775,2V4.354l8.873,2.073L37.092,4.2l1.123,3.493-5.38,1.862,4.494,11.68c-1.938,2.094-3.665,2.4-6.682,2.4s-4.744-.3-6.682-2.4l4.49-11.68L21.775,8.239V33.316h7.1V37H11.127V33.316h7.1V8.239l-6.686,4.314,4.494,13.68c-1.936,2.094-3.663,3.4-6.68,3.4s-4.744-1.3-6.682-3.4l4.49-13.68L1.785,10.692,2.908,7.2,9.353,9.425l8.873-5.071V2Zm8.873,12.084-1.516,5.179h3.031l-1.514-5.179Zm-21.294,3L6.837,24.263h5.031L9.353,17.084Z" transform="translate(0)" fill="#5449eb"/>
</svg>
